<?xml version="1.0" standalone="no"?>
<!DOCTYPE svg PUBLIC "-//W3C//DTD SVG 20010904//EN"
 "http://www.w3.org/TR/2001/REC-SVG-20010904/DTD/svg10.dtd">
<svg version="1.0" xmlns="http://www.w3.org/2000/svg"
 width="1024.000000pt" height="1024.000000pt" viewBox="0 0 1024.000000 1024.000000"
 preserveAspectRatio="xMidYMid meet">
<metadata>
Created by potrace 1.11, written by Peter Selinger 2001-2013
</metadata>
<g transform="translate(0.000000,1024.000000) scale(0.100000,-0.100000)"
fill="#000000" stroke="none">
<path d="M4969 8776 c-2 -2 -44 -6 -94 -10 -49 -3 -106 -8 -125 -10 -19 -3
-60 -7 -90 -10 -30 -4 -62 -8 -70 -11 -8 -2 -35 -7 -60 -10 -25 -3 -52 -8 -60
-10 -8 -2 -28 -7 -45 -10 -107 -18 -385 -99 -470 -135 -11 -5 -49 -21 -85 -35
-132 -54 -328 -159 -440 -236 -136 -94 -184 -134 -311 -259 -247 -244 -410
-523 -498 -850 -33 -124 -41 -173 -57 -330 -15 -147 -4 -423 21 -550 3 -14 7
-34 9 -46 56 -297 209 -584 431 -809 55 -56 118 -114 140 -131 22 -16 42 -31
45 -34 18 -20 164 -118 246 -165 252 -146 565 -269 929 -366 95 -25 87 -23
198 -49 183 -43 424 -101 462 -110 22 -6 49 -12 60 -14 11 -2 40 -9 65 -16 25
-7 52 -13 60 -15 49 -10 389 -98 460 -120 319 -96 598 -233 765 -377 117 -100
213 -240 258 -375 35 -107 42 -166 41 -323 -2 -114 -6 -149 -28 -224 -53 -176
-138 -313 -280 -449 -88 -84 -202 -161 -332 -226 -97 -48 -278 -114 -344 -126
-18 -3 -36 -8 -40 -10 -15 -9 -246 -45 -337 -52 -116 -8 -333 -8 -430 2 -37 4
-88 8 -112 11 -90 8 -291 55 -411 94 -433 144 -747 411 -888 760 -41 99 -78
235 -81 298 -1 9 -119 12 -555 12 l-553 0 3 -23 c2 -12 8 -70 14 -129 33 -302
129 -587 287 -846 303 -499 828 -856 1502 -1022 64 -15 132 -31 151 -34 19 -3
46 -8 60 -11 57 -12 158 -27 200 -31 25 -2 54 -6 65 -9 114 -25 831 -26 965 0
9 2 43 6 76 9 68 7 206 30 314 53 41 8 82 16 91 18 10 2 67 17 129 35 818 227
1378 724 1585 1406 19 63 36 124 39 136 2 13 11 61 20 108 38 197 43 559 10
760 -35 215 -124 462 -214 596 -16 25 -30 47 -30 50 0 7 -86 120 -125 163 -43
48 -165 165 -200 193 -16 12 -37 29 -45 37 -8 7 -62 45 -120 84 -206 137 -488
269 -790 370 -139 47 -346 108 -416 122 -6 2 -77 19 -158 40 -81 20 -154 38
-164 40 -9 2 -147 36 -307 75 -159 40 -294 73 -300 74 -40 10 -89 24 -223 62
-394 113 -679 253 -842 414 -88 86 -123 133 -165 221 -53 113 -68 186 -69 329
-1 170 3 198 56 350 61 172 212 358 386 473 141 94 350 181 517 218 33 7 62
13 65 14 3 1 30 5 60 9 30 5 64 10 75 12 118 22 473 22 605 0 25 -5 81 -14
135 -22 118 -19 355 -101 448 -156 26 -15 50 -28 53 -28 20 0 174 -120 250
-195 176 -175 290 -397 325 -636 7 -46 15 -88 19 -92 6 -6 1010 -13 1080 -7 6
0 -6 181 -15 238 -3 17 -8 49 -11 70 -11 76 -57 250 -89 337 -98 271 -248 506
-455 715 -357 360 -827 589 -1418 690 -67 11 -146 23 -174 25 -29 3 -71 8 -93
11 -47 6 -550 15 -556 10z"/>
</g>
</svg>
